<mxfile host="app.diagrams.net" modified="2024-09-15T14:16:30.690Z" agent="Mozilla/5.0 (Windows NT 10.0; Win64; x64; rv:128.0) Gecko/20100101 Firefox/128.0" etag="R9H3L4X9O1U3jNxzm6Uv" version="24.4.8" type="google">
  <diagram id="R2lEEEUBdFMjLlhIrx00" name="Page-1">
    <mxGraphModel grid="1" page="1" gridSize="10" guides="1" tooltips="1" connect="1" arrows="1" fold="1" pageScale="1" pageWidth="850" pageHeight="1100" math="0" shadow="0" extFonts="Permanent Marker^https://fonts.googleapis.com/css?family=Permanent+Marker">
      <root>
        <mxCell id="0" />
        <mxCell id="1" parent="0" />
        <mxCell id="iwsK-LVghK-gB1DlUTeF-1" value="Cooks" style="rounded=0;whiteSpace=wrap;html=1;" vertex="1" parent="1">
          <mxGeometry x="165" y="120" width="110" height="40" as="geometry" />
        </mxCell>
        <mxCell id="iwsK-LVghK-gB1DlUTeF-2" value="Customers" style="rounded=0;whiteSpace=wrap;html=1;" vertex="1" parent="1">
          <mxGeometry x="200" y="510" width="110" height="40" as="geometry" />
        </mxCell>
        <mxCell id="iwsK-LVghK-gB1DlUTeF-3" value="Cyclists" style="rounded=0;whiteSpace=wrap;html=1;" vertex="1" parent="1">
          <mxGeometry x="165" y="350" width="110" height="40" as="geometry" />
        </mxCell>
        <mxCell id="iwsK-LVghK-gB1DlUTeF-4" value="Orders" style="rounded=0;whiteSpace=wrap;html=1;" vertex="1" parent="1">
          <mxGeometry x="470" y="350" width="110" height="40" as="geometry" />
        </mxCell>
        <mxCell id="iwsK-LVghK-gB1DlUTeF-5" value="Dishes" style="rounded=0;whiteSpace=wrap;html=1;" vertex="1" parent="1">
          <mxGeometry x="610" y="110" width="110" height="40" as="geometry" />
        </mxCell>
        <mxCell id="iwsK-LVghK-gB1DlUTeF-6" value="Ratings" style="rounded=0;whiteSpace=wrap;html=1;" vertex="1" parent="1">
          <mxGeometry x="1080" y="130" width="110" height="40" as="geometry" />
        </mxCell>
        <mxCell id="iwsK-LVghK-gB1DlUTeF-7" value="OrderDetails" style="rounded=0;whiteSpace=wrap;html=1;" vertex="1" parent="1">
          <mxGeometry x="540" y="440" width="110" height="40" as="geometry" />
        </mxCell>
        <mxCell id="iwsK-LVghK-gB1DlUTeF-8" value="Trips" style="rounded=0;whiteSpace=wrap;html=1;" vertex="1" parent="1">
          <mxGeometry x="1185" y="350" width="110" height="40" as="geometry" />
        </mxCell>
        <mxCell id="iwsK-LVghK-gB1DlUTeF-9" value="Earnings" style="rounded=0;whiteSpace=wrap;html=1;" vertex="1" parent="1">
          <mxGeometry x="1045" y="510" width="110" height="40" as="geometry" />
        </mxCell>
        <mxCell id="iwsK-LVghK-gB1DlUTeF-10" value="Name" style="ellipse;whiteSpace=wrap;html=1;" vertex="1" parent="1">
          <mxGeometry x="170" y="60" width="100" height="40" as="geometry" />
        </mxCell>
        <mxCell id="iwsK-LVghK-gB1DlUTeF-11" value="&lt;u&gt;CookID&lt;/u&gt;" style="ellipse;whiteSpace=wrap;html=1;" vertex="1" parent="1">
          <mxGeometry x="40" y="60" width="100" height="40" as="geometry" />
        </mxCell>
        <mxCell id="iwsK-LVghK-gB1DlUTeF-13" value="Address" style="ellipse;whiteSpace=wrap;html=1;" vertex="1" parent="1">
          <mxGeometry x="290" y="60" width="100" height="40" as="geometry" />
        </mxCell>
        <mxCell id="iwsK-LVghK-gB1DlUTeF-14" value="Phone" style="ellipse;whiteSpace=wrap;html=1;" vertex="1" parent="1">
          <mxGeometry x="325" y="120" width="100" height="40" as="geometry" />
        </mxCell>
        <mxCell id="iwsK-LVghK-gB1DlUTeF-15" value="ID" style="ellipse;whiteSpace=wrap;html=1;" vertex="1" parent="1">
          <mxGeometry y="190" width="100" height="40" as="geometry" />
        </mxCell>
        <mxCell id="iwsK-LVghK-gB1DlUTeF-16" value="Rating" style="ellipse;whiteSpace=wrap;html=1;" vertex="1" parent="1">
          <mxGeometry y="120" width="100" height="40" as="geometry" />
        </mxCell>
        <mxCell id="iwsK-LVghK-gB1DlUTeF-18" value="&lt;u&gt;CyclistsID&lt;/u&gt;" style="ellipse;whiteSpace=wrap;html=1;" vertex="1" parent="1">
          <mxGeometry y="300" width="100" height="40" as="geometry" />
        </mxCell>
        <mxCell id="iwsK-LVghK-gB1DlUTeF-19" value="Name" style="ellipse;whiteSpace=wrap;html=1;" vertex="1" parent="1">
          <mxGeometry y="350" width="100" height="40" as="geometry" />
        </mxCell>
        <mxCell id="iwsK-LVghK-gB1DlUTeF-20" value="Phone" style="ellipse;whiteSpace=wrap;html=1;" vertex="1" parent="1">
          <mxGeometry y="250" width="100" height="40" as="geometry" />
        </mxCell>
        <mxCell id="iwsK-LVghK-gB1DlUTeF-21" value="BikeType" style="ellipse;whiteSpace=wrap;html=1;" vertex="1" parent="1">
          <mxGeometry y="400" width="100" height="40" as="geometry" />
        </mxCell>
        <mxCell id="iwsK-LVghK-gB1DlUTeF-22" value="ID" style="ellipse;whiteSpace=wrap;html=1;" vertex="1" parent="1">
          <mxGeometry y="450" width="100" height="40" as="geometry" />
        </mxCell>
        <mxCell id="iwsK-LVghK-gB1DlUTeF-23" value="" style="endArrow=none;html=1;rounded=0;entryX=0;entryY=0.5;entryDx=0;entryDy=0;exitX=1;exitY=0.5;exitDx=0;exitDy=0;" edge="1" parent="1" source="iwsK-LVghK-gB1DlUTeF-1" target="iwsK-LVghK-gB1DlUTeF-14">
          <mxGeometry width="50" height="50" relative="1" as="geometry">
            <mxPoint x="150" y="270" as="sourcePoint" />
            <mxPoint x="200" y="220" as="targetPoint" />
          </mxGeometry>
        </mxCell>
        <mxCell id="iwsK-LVghK-gB1DlUTeF-24" value="" style="endArrow=none;html=1;rounded=0;entryX=0;entryY=1;entryDx=0;entryDy=0;exitX=1;exitY=0.25;exitDx=0;exitDy=0;" edge="1" parent="1" source="iwsK-LVghK-gB1DlUTeF-1" target="iwsK-LVghK-gB1DlUTeF-13">
          <mxGeometry width="50" height="50" relative="1" as="geometry">
            <mxPoint x="285" y="150" as="sourcePoint" />
            <mxPoint x="335" y="150" as="targetPoint" />
          </mxGeometry>
        </mxCell>
        <mxCell id="iwsK-LVghK-gB1DlUTeF-25" value="" style="endArrow=none;html=1;rounded=0;entryX=0.5;entryY=1;entryDx=0;entryDy=0;exitX=0.5;exitY=0;exitDx=0;exitDy=0;" edge="1" parent="1" source="iwsK-LVghK-gB1DlUTeF-1" target="iwsK-LVghK-gB1DlUTeF-10">
          <mxGeometry width="50" height="50" relative="1" as="geometry">
            <mxPoint x="230" y="136" as="sourcePoint" />
            <mxPoint x="260" y="100" as="targetPoint" />
          </mxGeometry>
        </mxCell>
        <mxCell id="iwsK-LVghK-gB1DlUTeF-28" value="" style="endArrow=none;html=1;rounded=0;entryX=1;entryY=1;entryDx=0;entryDy=0;exitX=0;exitY=0.25;exitDx=0;exitDy=0;" edge="1" parent="1" source="iwsK-LVghK-gB1DlUTeF-1" target="iwsK-LVghK-gB1DlUTeF-11">
          <mxGeometry width="50" height="50" relative="1" as="geometry">
            <mxPoint x="285" y="140" as="sourcePoint" />
            <mxPoint x="315" y="104" as="targetPoint" />
          </mxGeometry>
        </mxCell>
        <mxCell id="iwsK-LVghK-gB1DlUTeF-29" value="" style="endArrow=none;html=1;rounded=0;entryX=0;entryY=0.5;entryDx=0;entryDy=0;exitX=1;exitY=0.5;exitDx=0;exitDy=0;" edge="1" parent="1" source="iwsK-LVghK-gB1DlUTeF-16">
          <mxGeometry width="50" height="50" relative="1" as="geometry">
            <mxPoint x="115" y="140" as="sourcePoint" />
            <mxPoint x="165" y="140" as="targetPoint" />
          </mxGeometry>
        </mxCell>
        <mxCell id="iwsK-LVghK-gB1DlUTeF-30" value="" style="endArrow=none;html=1;rounded=0;entryX=1;entryY=0.5;entryDx=0;entryDy=0;exitX=0.25;exitY=0;exitDx=0;exitDy=0;" edge="1" parent="1" source="iwsK-LVghK-gB1DlUTeF-3" target="iwsK-LVghK-gB1DlUTeF-15">
          <mxGeometry width="50" height="50" relative="1" as="geometry">
            <mxPoint x="210" y="300" as="sourcePoint" />
            <mxPoint x="260" y="250" as="targetPoint" />
          </mxGeometry>
        </mxCell>
        <mxCell id="iwsK-LVghK-gB1DlUTeF-31" value="" style="endArrow=none;html=1;rounded=0;entryX=1;entryY=0.5;entryDx=0;entryDy=0;exitX=0;exitY=0;exitDx=0;exitDy=0;" edge="1" parent="1" source="iwsK-LVghK-gB1DlUTeF-3" target="iwsK-LVghK-gB1DlUTeF-20">
          <mxGeometry width="50" height="50" relative="1" as="geometry">
            <mxPoint x="203" y="360" as="sourcePoint" />
            <mxPoint x="110" y="220" as="targetPoint" />
          </mxGeometry>
        </mxCell>
        <mxCell id="iwsK-LVghK-gB1DlUTeF-32" value="" style="endArrow=none;html=1;rounded=0;entryX=1;entryY=0.5;entryDx=0;entryDy=0;exitX=0;exitY=0.5;exitDx=0;exitDy=0;" edge="1" parent="1" source="iwsK-LVghK-gB1DlUTeF-3" target="iwsK-LVghK-gB1DlUTeF-18">
          <mxGeometry width="50" height="50" relative="1" as="geometry">
            <mxPoint x="175" y="360" as="sourcePoint" />
            <mxPoint x="110" y="280" as="targetPoint" />
          </mxGeometry>
        </mxCell>
        <mxCell id="iwsK-LVghK-gB1DlUTeF-33" value="" style="endArrow=none;html=1;rounded=0;entryX=1;entryY=0.5;entryDx=0;entryDy=0;exitX=0;exitY=0.5;exitDx=0;exitDy=0;" edge="1" parent="1" source="iwsK-LVghK-gB1DlUTeF-3" target="iwsK-LVghK-gB1DlUTeF-19">
          <mxGeometry width="50" height="50" relative="1" as="geometry">
            <mxPoint x="175" y="380" as="sourcePoint" />
            <mxPoint x="110" y="330" as="targetPoint" />
          </mxGeometry>
        </mxCell>
        <mxCell id="iwsK-LVghK-gB1DlUTeF-34" value="" style="endArrow=none;html=1;rounded=0;entryX=1;entryY=0.5;entryDx=0;entryDy=0;exitX=0;exitY=1;exitDx=0;exitDy=0;" edge="1" parent="1" source="iwsK-LVghK-gB1DlUTeF-3" target="iwsK-LVghK-gB1DlUTeF-21">
          <mxGeometry width="50" height="50" relative="1" as="geometry">
            <mxPoint x="175" y="380" as="sourcePoint" />
            <mxPoint x="110" y="380" as="targetPoint" />
          </mxGeometry>
        </mxCell>
        <mxCell id="iwsK-LVghK-gB1DlUTeF-35" value="" style="endArrow=none;html=1;rounded=0;entryX=1;entryY=0.5;entryDx=0;entryDy=0;exitX=0.25;exitY=1;exitDx=0;exitDy=0;" edge="1" parent="1" source="iwsK-LVghK-gB1DlUTeF-3" target="iwsK-LVghK-gB1DlUTeF-22">
          <mxGeometry width="50" height="50" relative="1" as="geometry">
            <mxPoint x="175" y="400" as="sourcePoint" />
            <mxPoint x="110" y="430" as="targetPoint" />
          </mxGeometry>
        </mxCell>
        <mxCell id="iwsK-LVghK-gB1DlUTeF-36" value="Address" style="ellipse;whiteSpace=wrap;html=1;" vertex="1" parent="1">
          <mxGeometry x="130" y="570" width="100" height="40" as="geometry" />
        </mxCell>
        <mxCell id="iwsK-LVghK-gB1DlUTeF-38" value="Phone" style="ellipse;whiteSpace=wrap;html=1;" vertex="1" parent="1">
          <mxGeometry x="250" y="570" width="100" height="40" as="geometry" />
        </mxCell>
        <mxCell id="iwsK-LVghK-gB1DlUTeF-39" value="Name" style="ellipse;whiteSpace=wrap;html=1;" vertex="1" parent="1">
          <mxGeometry x="370" y="570" width="100" height="40" as="geometry" />
        </mxCell>
        <mxCell id="iwsK-LVghK-gB1DlUTeF-40" value="&lt;u&gt;CustomerID&lt;/u&gt;" style="ellipse;whiteSpace=wrap;html=1;" vertex="1" parent="1">
          <mxGeometry x="10" y="570" width="100" height="40" as="geometry" />
        </mxCell>
        <mxCell id="iwsK-LVghK-gB1DlUTeF-41" value="PaymentOption" style="ellipse;whiteSpace=wrap;html=1;" vertex="1" parent="1">
          <mxGeometry x="10" y="510" width="100" height="40" as="geometry" />
        </mxCell>
        <mxCell id="iwsK-LVghK-gB1DlUTeF-42" value="" style="endArrow=none;html=1;rounded=0;entryX=1;entryY=0.5;entryDx=0;entryDy=0;exitX=0;exitY=0.5;exitDx=0;exitDy=0;" edge="1" parent="1" source="iwsK-LVghK-gB1DlUTeF-2" target="iwsK-LVghK-gB1DlUTeF-41">
          <mxGeometry width="50" height="50" relative="1" as="geometry">
            <mxPoint x="203" y="400" as="sourcePoint" />
            <mxPoint x="110" y="480" as="targetPoint" />
          </mxGeometry>
        </mxCell>
        <mxCell id="iwsK-LVghK-gB1DlUTeF-43" value="" style="endArrow=none;html=1;rounded=0;entryX=1;entryY=0;entryDx=0;entryDy=0;" edge="1" parent="1" target="iwsK-LVghK-gB1DlUTeF-40">
          <mxGeometry width="50" height="50" relative="1" as="geometry">
            <mxPoint x="200" y="550" as="sourcePoint" />
            <mxPoint x="120" y="540" as="targetPoint" />
          </mxGeometry>
        </mxCell>
        <mxCell id="iwsK-LVghK-gB1DlUTeF-44" value="" style="endArrow=none;html=1;rounded=0;entryX=1;entryY=0;entryDx=0;entryDy=0;exitX=0.25;exitY=1;exitDx=0;exitDy=0;" edge="1" parent="1" source="iwsK-LVghK-gB1DlUTeF-2" target="iwsK-LVghK-gB1DlUTeF-36">
          <mxGeometry width="50" height="50" relative="1" as="geometry">
            <mxPoint x="210" y="560" as="sourcePoint" />
            <mxPoint x="105" y="586" as="targetPoint" />
          </mxGeometry>
        </mxCell>
        <mxCell id="iwsK-LVghK-gB1DlUTeF-45" value="" style="endArrow=none;html=1;rounded=0;entryX=0;entryY=0;entryDx=0;entryDy=0;exitX=0.5;exitY=1;exitDx=0;exitDy=0;" edge="1" parent="1" source="iwsK-LVghK-gB1DlUTeF-2" target="iwsK-LVghK-gB1DlUTeF-38">
          <mxGeometry width="50" height="50" relative="1" as="geometry">
            <mxPoint x="238" y="560" as="sourcePoint" />
            <mxPoint x="225" y="586" as="targetPoint" />
          </mxGeometry>
        </mxCell>
        <mxCell id="iwsK-LVghK-gB1DlUTeF-46" value="" style="endArrow=none;html=1;rounded=0;entryX=0;entryY=0;entryDx=0;entryDy=0;exitX=0.75;exitY=1;exitDx=0;exitDy=0;" edge="1" parent="1" source="iwsK-LVghK-gB1DlUTeF-2" target="iwsK-LVghK-gB1DlUTeF-39">
          <mxGeometry width="50" height="50" relative="1" as="geometry">
            <mxPoint x="265" y="560" as="sourcePoint" />
            <mxPoint x="275" y="586" as="targetPoint" />
          </mxGeometry>
        </mxCell>
        <mxCell id="iwsK-LVghK-gB1DlUTeF-47" value="&lt;u&gt;DishID&lt;/u&gt;" style="ellipse;whiteSpace=wrap;html=1;" vertex="1" parent="1">
          <mxGeometry x="430" y="50" width="100" height="40" as="geometry" />
        </mxCell>
        <mxCell id="iwsK-LVghK-gB1DlUTeF-48" value="CustomerID" style="ellipse;whiteSpace=wrap;html=1;" vertex="1" parent="1">
          <mxGeometry x="530" y="280" width="100" height="40" as="geometry" />
        </mxCell>
        <mxCell id="iwsK-LVghK-gB1DlUTeF-49" value="CyclistID" style="ellipse;whiteSpace=wrap;html=1;" vertex="1" parent="1">
          <mxGeometry x="320" y="300" width="100" height="40" as="geometry" />
        </mxCell>
        <mxCell id="iwsK-LVghK-gB1DlUTeF-50" value="OrderTime" style="ellipse;whiteSpace=wrap;html=1;" vertex="1" parent="1">
          <mxGeometry x="630" y="300" width="100" height="40" as="geometry" />
        </mxCell>
        <mxCell id="iwsK-LVghK-gB1DlUTeF-51" value="&lt;u&gt;OrderID&lt;/u&gt;" style="ellipse;whiteSpace=wrap;html=1;" vertex="1" parent="1">
          <mxGeometry x="420" y="280" width="100" height="40" as="geometry" />
        </mxCell>
        <mxCell id="iwsK-LVghK-gB1DlUTeF-53" value="CookID" style="ellipse;whiteSpace=wrap;html=1;" vertex="1" parent="1">
          <mxGeometry x="560" y="50" width="100" height="40" as="geometry" />
        </mxCell>
        <mxCell id="iwsK-LVghK-gB1DlUTeF-54" value="Name" style="ellipse;whiteSpace=wrap;html=1;" vertex="1" parent="1">
          <mxGeometry x="690" y="50" width="100" height="40" as="geometry" />
        </mxCell>
        <mxCell id="iwsK-LVghK-gB1DlUTeF-55" value="Quantity" style="ellipse;whiteSpace=wrap;html=1;" vertex="1" parent="1">
          <mxGeometry x="430" y="120" width="100" height="40" as="geometry" />
        </mxCell>
        <mxCell id="iwsK-LVghK-gB1DlUTeF-56" value="EndTime" style="ellipse;whiteSpace=wrap;html=1;" vertex="1" parent="1">
          <mxGeometry x="810" y="100" width="100" height="40" as="geometry" />
        </mxCell>
        <mxCell id="iwsK-LVghK-gB1DlUTeF-57" value="Price" style="ellipse;whiteSpace=wrap;html=1;" vertex="1" parent="1">
          <mxGeometry x="810" y="50" width="100" height="40" as="geometry" />
        </mxCell>
        <mxCell id="iwsK-LVghK-gB1DlUTeF-58" value="StartTime" style="ellipse;whiteSpace=wrap;html=1;" vertex="1" parent="1">
          <mxGeometry x="810" y="150" width="100" height="40" as="geometry" />
        </mxCell>
        <mxCell id="iwsK-LVghK-gB1DlUTeF-59" value="" style="endArrow=none;html=1;rounded=0;entryX=0;entryY=0.5;entryDx=0;entryDy=0;exitX=1;exitY=0.5;exitDx=0;exitDy=0;" edge="1" parent="1" source="iwsK-LVghK-gB1DlUTeF-55" target="iwsK-LVghK-gB1DlUTeF-5">
          <mxGeometry width="50" height="50" relative="1" as="geometry">
            <mxPoint x="560" y="180" as="sourcePoint" />
            <mxPoint x="610" y="180" as="targetPoint" />
          </mxGeometry>
        </mxCell>
        <mxCell id="iwsK-LVghK-gB1DlUTeF-60" value="" style="endArrow=none;html=1;rounded=0;entryX=0;entryY=0.25;entryDx=0;entryDy=0;exitX=1;exitY=1;exitDx=0;exitDy=0;" edge="1" parent="1" source="iwsK-LVghK-gB1DlUTeF-47" target="iwsK-LVghK-gB1DlUTeF-5">
          <mxGeometry width="50" height="50" relative="1" as="geometry">
            <mxPoint x="540" y="150" as="sourcePoint" />
            <mxPoint x="620" y="140" as="targetPoint" />
          </mxGeometry>
        </mxCell>
        <mxCell id="iwsK-LVghK-gB1DlUTeF-61" value="" style="endArrow=none;html=1;rounded=0;entryX=0.25;entryY=0;entryDx=0;entryDy=0;exitX=0.5;exitY=1;exitDx=0;exitDy=0;" edge="1" parent="1" source="iwsK-LVghK-gB1DlUTeF-53" target="iwsK-LVghK-gB1DlUTeF-5">
          <mxGeometry width="50" height="50" relative="1" as="geometry">
            <mxPoint x="525" y="94" as="sourcePoint" />
            <mxPoint x="620" y="130" as="targetPoint" />
          </mxGeometry>
        </mxCell>
        <mxCell id="iwsK-LVghK-gB1DlUTeF-62" value="" style="endArrow=none;html=1;rounded=0;entryX=0.5;entryY=0;entryDx=0;entryDy=0;exitX=0;exitY=1;exitDx=0;exitDy=0;" edge="1" parent="1" source="iwsK-LVghK-gB1DlUTeF-54" target="iwsK-LVghK-gB1DlUTeF-5">
          <mxGeometry width="50" height="50" relative="1" as="geometry">
            <mxPoint x="620" y="100" as="sourcePoint" />
            <mxPoint x="648" y="120" as="targetPoint" />
          </mxGeometry>
        </mxCell>
        <mxCell id="iwsK-LVghK-gB1DlUTeF-63" value="" style="endArrow=none;html=1;rounded=0;entryX=0.75;entryY=0;entryDx=0;entryDy=0;exitX=0;exitY=1;exitDx=0;exitDy=0;" edge="1" parent="1" source="iwsK-LVghK-gB1DlUTeF-57" target="iwsK-LVghK-gB1DlUTeF-5">
          <mxGeometry width="50" height="50" relative="1" as="geometry">
            <mxPoint x="715" y="94" as="sourcePoint" />
            <mxPoint x="675" y="120" as="targetPoint" />
          </mxGeometry>
        </mxCell>
        <mxCell id="iwsK-LVghK-gB1DlUTeF-64" value="" style="endArrow=none;html=1;rounded=0;entryX=1;entryY=0.5;entryDx=0;entryDy=0;exitX=0;exitY=0.5;exitDx=0;exitDy=0;" edge="1" parent="1" source="iwsK-LVghK-gB1DlUTeF-56" target="iwsK-LVghK-gB1DlUTeF-5">
          <mxGeometry width="50" height="50" relative="1" as="geometry">
            <mxPoint x="835" y="94" as="sourcePoint" />
            <mxPoint x="703" y="120" as="targetPoint" />
          </mxGeometry>
        </mxCell>
        <mxCell id="iwsK-LVghK-gB1DlUTeF-65" value="" style="endArrow=none;html=1;rounded=0;entryX=1;entryY=1;entryDx=0;entryDy=0;exitX=0;exitY=0;exitDx=0;exitDy=0;" edge="1" parent="1" source="iwsK-LVghK-gB1DlUTeF-58" target="iwsK-LVghK-gB1DlUTeF-5">
          <mxGeometry width="50" height="50" relative="1" as="geometry">
            <mxPoint x="820" y="140" as="sourcePoint" />
            <mxPoint x="730" y="140" as="targetPoint" />
          </mxGeometry>
        </mxCell>
        <mxCell id="iwsK-LVghK-gB1DlUTeF-66" value="&lt;u&gt;OrderDetailID&lt;/u&gt;" style="ellipse;whiteSpace=wrap;html=1;" vertex="1" parent="1">
          <mxGeometry x="375" y="510" width="100" height="40" as="geometry" />
        </mxCell>
        <mxCell id="iwsK-LVghK-gB1DlUTeF-67" value="OrderID" style="ellipse;whiteSpace=wrap;html=1;" vertex="1" parent="1">
          <mxGeometry x="600" y="510" width="100" height="40" as="geometry" />
        </mxCell>
        <mxCell id="iwsK-LVghK-gB1DlUTeF-68" value="Dish" style="ellipse;whiteSpace=wrap;html=1;" vertex="1" parent="1">
          <mxGeometry x="490" y="510" width="100" height="40" as="geometry" />
        </mxCell>
        <mxCell id="iwsK-LVghK-gB1DlUTeF-69" value="Quantity" style="ellipse;whiteSpace=wrap;html=1;" vertex="1" parent="1">
          <mxGeometry x="720" y="510" width="100" height="40" as="geometry" />
        </mxCell>
        <mxCell id="iwsK-LVghK-gB1DlUTeF-71" value="" style="endArrow=none;html=1;rounded=0;entryX=0;entryY=0.5;entryDx=0;entryDy=0;exitX=0.5;exitY=1;exitDx=0;exitDy=0;" edge="1" parent="1" source="iwsK-LVghK-gB1DlUTeF-49" target="iwsK-LVghK-gB1DlUTeF-4">
          <mxGeometry width="50" height="50" relative="1" as="geometry">
            <mxPoint x="380" y="360" as="sourcePoint" />
            <mxPoint x="472" y="366" as="targetPoint" />
          </mxGeometry>
        </mxCell>
        <mxCell id="iwsK-LVghK-gB1DlUTeF-72" value="" style="endArrow=none;html=1;rounded=0;entryX=0.25;entryY=0;entryDx=0;entryDy=0;exitX=0.5;exitY=1;exitDx=0;exitDy=0;" edge="1" parent="1" source="iwsK-LVghK-gB1DlUTeF-51" target="iwsK-LVghK-gB1DlUTeF-4">
          <mxGeometry width="50" height="50" relative="1" as="geometry">
            <mxPoint x="380" y="350" as="sourcePoint" />
            <mxPoint x="480" y="380" as="targetPoint" />
          </mxGeometry>
        </mxCell>
        <mxCell id="iwsK-LVghK-gB1DlUTeF-73" value="" style="endArrow=none;html=1;rounded=0;entryX=0.75;entryY=0;entryDx=0;entryDy=0;exitX=0.5;exitY=1;exitDx=0;exitDy=0;" edge="1" parent="1" source="iwsK-LVghK-gB1DlUTeF-48" target="iwsK-LVghK-gB1DlUTeF-4">
          <mxGeometry width="50" height="50" relative="1" as="geometry">
            <mxPoint x="480" y="330" as="sourcePoint" />
            <mxPoint x="508" y="360" as="targetPoint" />
          </mxGeometry>
        </mxCell>
        <mxCell id="iwsK-LVghK-gB1DlUTeF-74" value="" style="endArrow=none;html=1;rounded=0;entryX=1;entryY=0.5;entryDx=0;entryDy=0;exitX=0.5;exitY=1;exitDx=0;exitDy=0;" edge="1" parent="1" source="iwsK-LVghK-gB1DlUTeF-50" target="iwsK-LVghK-gB1DlUTeF-4">
          <mxGeometry width="50" height="50" relative="1" as="geometry">
            <mxPoint x="590" y="330" as="sourcePoint" />
            <mxPoint x="563" y="360" as="targetPoint" />
          </mxGeometry>
        </mxCell>
        <mxCell id="iwsK-LVghK-gB1DlUTeF-75" value="" style="endArrow=none;html=1;rounded=0;entryX=1;entryY=1;entryDx=0;entryDy=0;exitX=0.5;exitY=0;exitDx=0;exitDy=0;" edge="1" parent="1" source="iwsK-LVghK-gB1DlUTeF-69" target="iwsK-LVghK-gB1DlUTeF-7">
          <mxGeometry width="50" height="50" relative="1" as="geometry">
            <mxPoint x="750" y="440" as="sourcePoint" />
            <mxPoint x="650" y="470" as="targetPoint" />
          </mxGeometry>
        </mxCell>
        <mxCell id="iwsK-LVghK-gB1DlUTeF-76" value="" style="endArrow=none;html=1;rounded=0;entryX=0.75;entryY=1;entryDx=0;entryDy=0;exitX=0.5;exitY=0;exitDx=0;exitDy=0;" edge="1" parent="1" source="iwsK-LVghK-gB1DlUTeF-67" target="iwsK-LVghK-gB1DlUTeF-7">
          <mxGeometry width="50" height="50" relative="1" as="geometry">
            <mxPoint x="780" y="520" as="sourcePoint" />
            <mxPoint x="660" y="470" as="targetPoint" />
          </mxGeometry>
        </mxCell>
        <mxCell id="iwsK-LVghK-gB1DlUTeF-77" value="" style="endArrow=none;html=1;rounded=0;entryX=0.25;entryY=1;entryDx=0;entryDy=0;exitX=0.5;exitY=0;exitDx=0;exitDy=0;" edge="1" parent="1" source="iwsK-LVghK-gB1DlUTeF-68" target="iwsK-LVghK-gB1DlUTeF-7">
          <mxGeometry width="50" height="50" relative="1" as="geometry">
            <mxPoint x="617" y="520" as="sourcePoint" />
            <mxPoint x="590" y="490" as="targetPoint" />
          </mxGeometry>
        </mxCell>
        <mxCell id="iwsK-LVghK-gB1DlUTeF-79" value="" style="endArrow=none;html=1;rounded=0;entryX=0;entryY=0.5;entryDx=0;entryDy=0;exitX=0.573;exitY=-0.059;exitDx=0;exitDy=0;exitPerimeter=0;" edge="1" parent="1" source="iwsK-LVghK-gB1DlUTeF-66" target="iwsK-LVghK-gB1DlUTeF-7">
          <mxGeometry width="50" height="50" relative="1" as="geometry">
            <mxPoint x="490" y="516" as="sourcePoint" />
            <mxPoint x="510" y="480" as="targetPoint" />
          </mxGeometry>
        </mxCell>
        <mxCell id="iwsK-LVghK-gB1DlUTeF-80" value="&lt;u&gt;RatingID&lt;/u&gt;" style="ellipse;whiteSpace=wrap;html=1;" vertex="1" parent="1">
          <mxGeometry x="1120" y="50" width="100" height="40" as="geometry" />
        </mxCell>
        <mxCell id="iwsK-LVghK-gB1DlUTeF-81" value="CookID" style="ellipse;whiteSpace=wrap;html=1;" vertex="1" parent="1">
          <mxGeometry x="1200" y="100" width="100" height="40" as="geometry" />
        </mxCell>
        <mxCell id="iwsK-LVghK-gB1DlUTeF-82" value="Rating" style="ellipse;whiteSpace=wrap;html=1;" vertex="1" parent="1">
          <mxGeometry x="1200" y="160" width="100" height="40" as="geometry" />
        </mxCell>
        <mxCell id="iwsK-LVghK-gB1DlUTeF-83" value="CustomerID" style="ellipse;whiteSpace=wrap;html=1;" vertex="1" parent="1">
          <mxGeometry x="1120" y="210" width="100" height="40" as="geometry" />
        </mxCell>
        <mxCell id="iwsK-LVghK-gB1DlUTeF-84" value="" style="endArrow=none;html=1;rounded=0;entryX=0.5;entryY=0;entryDx=0;entryDy=0;exitX=0.5;exitY=1;exitDx=0;exitDy=0;" edge="1" parent="1" source="iwsK-LVghK-gB1DlUTeF-80" target="iwsK-LVghK-gB1DlUTeF-6">
          <mxGeometry width="50" height="50" relative="1" as="geometry">
            <mxPoint x="1020" y="110" as="sourcePoint" />
            <mxPoint x="920" y="140" as="targetPoint" />
          </mxGeometry>
        </mxCell>
        <mxCell id="iwsK-LVghK-gB1DlUTeF-85" value="" style="endArrow=none;html=1;rounded=0;entryX=1;entryY=0.5;entryDx=0;entryDy=0;exitX=0;exitY=0.5;exitDx=0;exitDy=0;" edge="1" parent="1" source="iwsK-LVghK-gB1DlUTeF-81" target="iwsK-LVghK-gB1DlUTeF-6">
          <mxGeometry width="50" height="50" relative="1" as="geometry">
            <mxPoint x="1180" y="100" as="sourcePoint" />
            <mxPoint x="1145" y="140" as="targetPoint" />
          </mxGeometry>
        </mxCell>
        <mxCell id="iwsK-LVghK-gB1DlUTeF-86" value="" style="endArrow=none;html=1;rounded=0;entryX=1;entryY=0.5;entryDx=0;entryDy=0;exitX=0;exitY=0.5;exitDx=0;exitDy=0;" edge="1" parent="1" source="iwsK-LVghK-gB1DlUTeF-82" target="iwsK-LVghK-gB1DlUTeF-6">
          <mxGeometry width="50" height="50" relative="1" as="geometry">
            <mxPoint x="1210" y="130" as="sourcePoint" />
            <mxPoint x="1200" y="160" as="targetPoint" />
          </mxGeometry>
        </mxCell>
        <mxCell id="iwsK-LVghK-gB1DlUTeF-87" value="" style="endArrow=none;html=1;rounded=0;entryX=0.5;entryY=1;entryDx=0;entryDy=0;exitX=0.5;exitY=0;exitDx=0;exitDy=0;" edge="1" parent="1" source="iwsK-LVghK-gB1DlUTeF-83" target="iwsK-LVghK-gB1DlUTeF-6">
          <mxGeometry width="50" height="50" relative="1" as="geometry">
            <mxPoint x="1210" y="190" as="sourcePoint" />
            <mxPoint x="1200" y="160" as="targetPoint" />
          </mxGeometry>
        </mxCell>
        <mxCell id="iwsK-LVghK-gB1DlUTeF-88" value="&lt;u&gt;StopID&lt;/u&gt;" style="ellipse;whiteSpace=wrap;html=1;" vertex="1" parent="1">
          <mxGeometry x="1060" y="290" width="100" height="40" as="geometry" />
        </mxCell>
        <mxCell id="iwsK-LVghK-gB1DlUTeF-89" value="TripID" style="ellipse;whiteSpace=wrap;html=1;" vertex="1" parent="1">
          <mxGeometry x="1185" y="290" width="100" height="40" as="geometry" />
        </mxCell>
        <mxCell id="iwsK-LVghK-gB1DlUTeF-90" value="CyclistsID" style="ellipse;whiteSpace=wrap;html=1;" vertex="1" parent="1">
          <mxGeometry x="1350" y="290" width="100" height="40" as="geometry" />
        </mxCell>
        <mxCell id="iwsK-LVghK-gB1DlUTeF-91" value="Address" style="ellipse;whiteSpace=wrap;html=1;" vertex="1" parent="1">
          <mxGeometry x="1345" y="430" width="100" height="40" as="geometry" />
        </mxCell>
        <mxCell id="iwsK-LVghK-gB1DlUTeF-92" value="StopType" style="ellipse;whiteSpace=wrap;html=1;" vertex="1" parent="1">
          <mxGeometry x="1350" y="360" width="100" height="40" as="geometry" />
        </mxCell>
        <mxCell id="iwsK-LVghK-gB1DlUTeF-93" value="&lt;u&gt;EarningID&lt;/u&gt;" style="ellipse;whiteSpace=wrap;html=1;" vertex="1" parent="1">
          <mxGeometry x="940" y="580" width="100" height="40" as="geometry" />
        </mxCell>
        <mxCell id="iwsK-LVghK-gB1DlUTeF-95" value="Time" style="ellipse;whiteSpace=wrap;html=1;" vertex="1" parent="1">
          <mxGeometry x="1190" y="430" width="100" height="40" as="geometry" />
        </mxCell>
        <mxCell id="iwsK-LVghK-gB1DlUTeF-96" value="CyclistID" style="ellipse;whiteSpace=wrap;html=1;" vertex="1" parent="1">
          <mxGeometry x="1050" y="580" width="100" height="40" as="geometry" />
        </mxCell>
        <mxCell id="iwsK-LVghK-gB1DlUTeF-97" value="Earned" style="ellipse;whiteSpace=wrap;html=1;" vertex="1" parent="1">
          <mxGeometry x="1160" y="580" width="100" height="40" as="geometry" />
        </mxCell>
        <mxCell id="iwsK-LVghK-gB1DlUTeF-99" value="Month" style="ellipse;whiteSpace=wrap;html=1;" vertex="1" parent="1">
          <mxGeometry x="830" y="580" width="100" height="40" as="geometry" />
        </mxCell>
        <mxCell id="iwsK-LVghK-gB1DlUTeF-100" value="Earned" style="ellipse;whiteSpace=wrap;html=1;" vertex="1" parent="1">
          <mxGeometry x="840" y="500" width="100" height="40" as="geometry" />
        </mxCell>
        <mxCell id="iwsK-LVghK-gB1DlUTeF-101" value="TripsAmount" style="ellipse;whiteSpace=wrap;html=1;" vertex="1" parent="1">
          <mxGeometry x="1280" y="580" width="100" height="40" as="geometry" />
        </mxCell>
        <mxCell id="iwsK-LVghK-gB1DlUTeF-102" value="" style="endArrow=none;html=1;rounded=0;entryX=0.567;entryY=1.03;entryDx=0;entryDy=0;exitX=0;exitY=0.5;exitDx=0;exitDy=0;entryPerimeter=0;" edge="1" parent="1" source="iwsK-LVghK-gB1DlUTeF-8" target="iwsK-LVghK-gB1DlUTeF-88">
          <mxGeometry width="50" height="50" relative="1" as="geometry">
            <mxPoint x="1175" y="380" as="sourcePoint" />
            <mxPoint x="1140" y="340" as="targetPoint" />
          </mxGeometry>
        </mxCell>
        <mxCell id="iwsK-LVghK-gB1DlUTeF-103" value="" style="endArrow=none;html=1;rounded=0;entryX=0.5;entryY=1;entryDx=0;entryDy=0;exitX=0.5;exitY=0;exitDx=0;exitDy=0;" edge="1" parent="1" source="iwsK-LVghK-gB1DlUTeF-8" target="iwsK-LVghK-gB1DlUTeF-89">
          <mxGeometry width="50" height="50" relative="1" as="geometry">
            <mxPoint x="1195" y="380" as="sourcePoint" />
            <mxPoint x="1127" y="341" as="targetPoint" />
          </mxGeometry>
        </mxCell>
        <mxCell id="iwsK-LVghK-gB1DlUTeF-104" value="" style="endArrow=none;html=1;rounded=0;entryX=0;entryY=1;entryDx=0;entryDy=0;exitX=1;exitY=0.25;exitDx=0;exitDy=0;" edge="1" parent="1" source="iwsK-LVghK-gB1DlUTeF-8" target="iwsK-LVghK-gB1DlUTeF-90">
          <mxGeometry width="50" height="50" relative="1" as="geometry">
            <mxPoint x="1358" y="360" as="sourcePoint" />
            <mxPoint x="1290" y="321" as="targetPoint" />
          </mxGeometry>
        </mxCell>
        <mxCell id="iwsK-LVghK-gB1DlUTeF-105" value="" style="endArrow=none;html=1;rounded=0;entryX=0;entryY=0;entryDx=0;entryDy=0;exitX=1;exitY=0.5;exitDx=0;exitDy=0;" edge="1" parent="1" source="iwsK-LVghK-gB1DlUTeF-8" target="iwsK-LVghK-gB1DlUTeF-92">
          <mxGeometry width="50" height="50" relative="1" as="geometry">
            <mxPoint x="1305" y="370" as="sourcePoint" />
            <mxPoint x="1375" y="334" as="targetPoint" />
          </mxGeometry>
        </mxCell>
        <mxCell id="iwsK-LVghK-gB1DlUTeF-108" value="" style="endArrow=none;html=1;rounded=0;entryX=0.5;entryY=0;entryDx=0;entryDy=0;exitX=0.5;exitY=1;exitDx=0;exitDy=0;" edge="1" parent="1" source="iwsK-LVghK-gB1DlUTeF-8" target="iwsK-LVghK-gB1DlUTeF-95">
          <mxGeometry width="50" height="50" relative="1" as="geometry">
            <mxPoint x="1275" y="414" as="sourcePoint" />
            <mxPoint x="1345" y="410" as="targetPoint" />
          </mxGeometry>
        </mxCell>
        <mxCell id="iwsK-LVghK-gB1DlUTeF-109" value="" style="endArrow=none;html=1;rounded=0;entryX=0;entryY=0.5;entryDx=0;entryDy=0;exitX=0.75;exitY=1;exitDx=0;exitDy=0;" edge="1" parent="1" source="iwsK-LVghK-gB1DlUTeF-8" target="iwsK-LVghK-gB1DlUTeF-91">
          <mxGeometry width="50" height="50" relative="1" as="geometry">
            <mxPoint x="1290" y="390" as="sourcePoint" />
            <mxPoint x="1290" y="430" as="targetPoint" />
          </mxGeometry>
        </mxCell>
        <mxCell id="iwsK-LVghK-gB1DlUTeF-110" value="" style="endArrow=none;html=1;rounded=0;entryX=0.5;entryY=0;entryDx=0;entryDy=0;exitX=1;exitY=0.5;exitDx=0;exitDy=0;" edge="1" parent="1" source="iwsK-LVghK-gB1DlUTeF-9" target="iwsK-LVghK-gB1DlUTeF-101">
          <mxGeometry width="50" height="50" relative="1" as="geometry">
            <mxPoint x="1160" y="520" as="sourcePoint" />
            <mxPoint x="1237" y="580" as="targetPoint" />
          </mxGeometry>
        </mxCell>
        <mxCell id="iwsK-LVghK-gB1DlUTeF-111" value="" style="endArrow=none;html=1;rounded=0;entryX=0.5;entryY=0;entryDx=0;entryDy=0;exitX=0.75;exitY=1;exitDx=0;exitDy=0;" edge="1" parent="1" source="iwsK-LVghK-gB1DlUTeF-9" target="iwsK-LVghK-gB1DlUTeF-97">
          <mxGeometry width="50" height="50" relative="1" as="geometry">
            <mxPoint x="1165" y="540" as="sourcePoint" />
            <mxPoint x="1340" y="590" as="targetPoint" />
          </mxGeometry>
        </mxCell>
        <mxCell id="iwsK-LVghK-gB1DlUTeF-112" value="" style="endArrow=none;html=1;rounded=0;entryX=0.5;entryY=0;entryDx=0;entryDy=0;exitX=0.5;exitY=1;exitDx=0;exitDy=0;" edge="1" parent="1" source="iwsK-LVghK-gB1DlUTeF-9" target="iwsK-LVghK-gB1DlUTeF-96">
          <mxGeometry width="50" height="50" relative="1" as="geometry">
            <mxPoint x="1108" y="560" as="sourcePoint" />
            <mxPoint x="1190" y="590" as="targetPoint" />
          </mxGeometry>
        </mxCell>
        <mxCell id="iwsK-LVghK-gB1DlUTeF-113" value="" style="endArrow=none;html=1;rounded=0;entryX=0.5;entryY=0;entryDx=0;entryDy=0;exitX=0.25;exitY=1;exitDx=0;exitDy=0;" edge="1" parent="1" source="iwsK-LVghK-gB1DlUTeF-9" target="iwsK-LVghK-gB1DlUTeF-93">
          <mxGeometry width="50" height="50" relative="1" as="geometry">
            <mxPoint x="1110" y="560" as="sourcePoint" />
            <mxPoint x="1110" y="590" as="targetPoint" />
          </mxGeometry>
        </mxCell>
        <mxCell id="iwsK-LVghK-gB1DlUTeF-114" value="" style="endArrow=none;html=1;rounded=0;entryX=0.5;entryY=0;entryDx=0;entryDy=0;exitX=0;exitY=0.5;exitDx=0;exitDy=0;" edge="1" parent="1" source="iwsK-LVghK-gB1DlUTeF-9" target="iwsK-LVghK-gB1DlUTeF-99">
          <mxGeometry width="50" height="50" relative="1" as="geometry">
            <mxPoint x="1083" y="560" as="sourcePoint" />
            <mxPoint x="1000" y="590" as="targetPoint" />
          </mxGeometry>
        </mxCell>
        <mxCell id="iwsK-LVghK-gB1DlUTeF-115" value="has" style="rhombus;whiteSpace=wrap;html=1;" vertex="1" parent="1">
          <mxGeometry x="410" y="205" width="100" height="50" as="geometry" />
        </mxCell>
        <mxCell id="iwsK-LVghK-gB1DlUTeF-116" value="" style="endArrow=none;html=1;rounded=0;entryX=0.5;entryY=1;entryDx=0;entryDy=0;exitX=0;exitY=0.5;exitDx=0;exitDy=0;" edge="1" parent="1" source="iwsK-LVghK-gB1DlUTeF-115" target="iwsK-LVghK-gB1DlUTeF-1">
          <mxGeometry width="50" height="50" relative="1" as="geometry">
            <mxPoint x="301.5" y="320" as="sourcePoint" />
            <mxPoint x="208.5" y="180" as="targetPoint" />
            <Array as="points">
              <mxPoint x="220" y="230" />
            </Array>
          </mxGeometry>
        </mxCell>
        <mxCell id="iwsK-LVghK-gB1DlUTeF-117" value="" style="endArrow=none;html=1;rounded=0;entryX=1;entryY=0.5;entryDx=0;entryDy=0;exitX=0.5;exitY=1;exitDx=0;exitDy=0;" edge="1" parent="1" source="iwsK-LVghK-gB1DlUTeF-5" target="iwsK-LVghK-gB1DlUTeF-115">
          <mxGeometry width="50" height="50" relative="1" as="geometry">
            <mxPoint x="660" y="250" as="sourcePoint" />
            <mxPoint x="555" y="224" as="targetPoint" />
            <Array as="points">
              <mxPoint x="665" y="230" />
            </Array>
          </mxGeometry>
        </mxCell>
        <mxCell id="iwsK-LVghK-gB1DlUTeF-119" value="has" style="rhombus;whiteSpace=wrap;html=1;" vertex="1" parent="1">
          <mxGeometry x="320" y="420" width="100" height="50" as="geometry" />
        </mxCell>
        <mxCell id="iwsK-LVghK-gB1DlUTeF-120" value="" style="endArrow=none;html=1;rounded=0;entryX=0;entryY=0.5;entryDx=0;entryDy=0;exitX=0.5;exitY=0;exitDx=0;exitDy=0;" edge="1" parent="1" source="iwsK-LVghK-gB1DlUTeF-2" target="iwsK-LVghK-gB1DlUTeF-119">
          <mxGeometry width="50" height="50" relative="1" as="geometry">
            <mxPoint x="220" y="455" as="sourcePoint" />
            <mxPoint x="320" y="485" as="targetPoint" />
            <Array as="points">
              <mxPoint x="255" y="445" />
            </Array>
          </mxGeometry>
        </mxCell>
        <mxCell id="iwsK-LVghK-gB1DlUTeF-121" value="" style="endArrow=none;html=1;rounded=0;entryX=0.5;entryY=1;entryDx=0;entryDy=0;exitX=1;exitY=0.5;exitDx=0;exitDy=0;" edge="1" parent="1" source="iwsK-LVghK-gB1DlUTeF-119" target="iwsK-LVghK-gB1DlUTeF-4">
          <mxGeometry width="50" height="50" relative="1" as="geometry">
            <mxPoint x="442" y="518" as="sourcePoint" />
            <mxPoint x="550" y="470" as="targetPoint" />
            <Array as="points">
              <mxPoint x="525" y="445" />
            </Array>
          </mxGeometry>
        </mxCell>
        <mxCell id="iwsK-LVghK-gB1DlUTeF-124" value="has" style="rhombus;whiteSpace=wrap;html=1;" vertex="1" parent="1">
          <mxGeometry x="660" y="370" width="100" height="50" as="geometry" />
        </mxCell>
        <mxCell id="iwsK-LVghK-gB1DlUTeF-125" value="" style="endArrow=none;html=1;rounded=0;entryX=1;entryY=1;entryDx=0;entryDy=0;exitX=0;exitY=0.5;exitDx=0;exitDy=0;" edge="1" parent="1" source="iwsK-LVghK-gB1DlUTeF-124" target="iwsK-LVghK-gB1DlUTeF-4">
          <mxGeometry width="50" height="50" relative="1" as="geometry">
            <mxPoint x="690" y="350" as="sourcePoint" />
            <mxPoint x="590" y="380" as="targetPoint" />
          </mxGeometry>
        </mxCell>
        <mxCell id="iwsK-LVghK-gB1DlUTeF-126" value="" style="endArrow=none;html=1;rounded=0;entryX=1;entryY=0;entryDx=0;entryDy=0;exitX=0;exitY=1;exitDx=0;exitDy=0;" edge="1" parent="1" source="iwsK-LVghK-gB1DlUTeF-124" target="iwsK-LVghK-gB1DlUTeF-7">
          <mxGeometry width="50" height="50" relative="1" as="geometry">
            <mxPoint x="680" y="415" as="sourcePoint" />
            <mxPoint x="590" y="400" as="targetPoint" />
          </mxGeometry>
        </mxCell>
        <mxCell id="iwsK-LVghK-gB1DlUTeF-127" value="" style="endArrow=none;html=1;rounded=0;entryX=1;entryY=0.5;entryDx=0;entryDy=0;exitX=0;exitY=0;exitDx=0;exitDy=0;" edge="1" parent="1" source="iwsK-LVghK-gB1DlUTeF-100" target="iwsK-LVghK-gB1DlUTeF-7">
          <mxGeometry width="50" height="50" relative="1" as="geometry">
            <mxPoint x="780" y="520" as="sourcePoint" />
            <mxPoint x="660" y="470" as="targetPoint" />
          </mxGeometry>
        </mxCell>
        <mxCell id="iwsK-LVghK-gB1DlUTeF-128" value="" style="endArrow=none;html=1;rounded=0;entryX=1;entryY=0.25;entryDx=0;entryDy=0;exitX=0.5;exitY=1;exitDx=0;exitDy=0;" edge="1" parent="1" source="iwsK-LVghK-gB1DlUTeF-130" target="iwsK-LVghK-gB1DlUTeF-7">
          <mxGeometry width="50" height="50" relative="1" as="geometry">
            <mxPoint x="870" y="400" as="sourcePoint" />
            <mxPoint x="795" y="461" as="targetPoint" />
            <Array as="points">
              <mxPoint x="840" y="450" />
            </Array>
          </mxGeometry>
        </mxCell>
        <mxCell id="iwsK-LVghK-gB1DlUTeF-130" value="has" style="rhombus;whiteSpace=wrap;html=1;" vertex="1" parent="1">
          <mxGeometry x="790" y="320" width="100" height="50" as="geometry" />
        </mxCell>
        <mxCell id="iwsK-LVghK-gB1DlUTeF-131" value="" style="endArrow=none;html=1;rounded=0;entryX=0.5;entryY=0;entryDx=0;entryDy=0;exitX=0.75;exitY=1;exitDx=0;exitDy=0;" edge="1" parent="1" source="iwsK-LVghK-gB1DlUTeF-5" target="iwsK-LVghK-gB1DlUTeF-130">
          <mxGeometry width="50" height="50" relative="1" as="geometry">
            <mxPoint x="690" y="350" as="sourcePoint" />
            <mxPoint x="590" y="380" as="targetPoint" />
            <Array as="points">
              <mxPoint x="693" y="250" />
              <mxPoint x="840" y="250" />
            </Array>
          </mxGeometry>
        </mxCell>
        <mxCell id="iwsK-LVghK-gB1DlUTeF-135" value="" style="endArrow=none;html=1;rounded=0;entryX=0.5;entryY=0;entryDx=0;entryDy=0;textShadow=0;shadow=0;jumpStyle=gap;" edge="1" parent="1" target="iwsK-LVghK-gB1DlUTeF-3">
          <mxGeometry width="50" height="50" relative="1" as="geometry">
            <mxPoint x="980" y="270" as="sourcePoint" />
            <mxPoint x="185" y="244" as="targetPoint" />
            <Array as="points">
              <mxPoint x="220" y="270" />
            </Array>
          </mxGeometry>
        </mxCell>
        <mxCell id="iwsK-LVghK-gB1DlUTeF-136" value="has" style="rhombus;whiteSpace=wrap;html=1;" vertex="1" parent="1">
          <mxGeometry x="980" y="245" width="100" height="50" as="geometry" />
        </mxCell>
        <mxCell id="iwsK-LVghK-gB1DlUTeF-137" value="" style="endArrow=none;html=1;rounded=0;entryX=0.5;entryY=1;entryDx=0;entryDy=0;exitX=0;exitY=0.75;exitDx=0;exitDy=0;" edge="1" parent="1" source="iwsK-LVghK-gB1DlUTeF-8" target="iwsK-LVghK-gB1DlUTeF-136">
          <mxGeometry width="50" height="50" relative="1" as="geometry">
            <mxPoint x="1078" y="379" as="sourcePoint" />
            <mxPoint x="1010" y="340" as="targetPoint" />
            <Array as="points">
              <mxPoint x="1030" y="380" />
            </Array>
          </mxGeometry>
        </mxCell>
        <mxCell id="iwsK-LVghK-gB1DlUTeF-138" value="" style="endArrow=none;html=1;rounded=0;entryX=0.25;entryY=0;entryDx=0;entryDy=0;jumpStyle=gap;" edge="1" parent="1" target="iwsK-LVghK-gB1DlUTeF-2">
          <mxGeometry width="50" height="50" relative="1" as="geometry">
            <mxPoint x="980" y="190" as="sourcePoint" />
            <mxPoint x="170" y="440" as="targetPoint" />
            <Array as="points">
              <mxPoint x="980" y="230" />
              <mxPoint x="760" y="230" />
              <mxPoint x="760" y="260" />
              <mxPoint x="310" y="260" />
              <mxPoint x="310" y="420" />
              <mxPoint x="228" y="420" />
            </Array>
          </mxGeometry>
        </mxCell>
        <mxCell id="iwsK-LVghK-gB1DlUTeF-139" value="rates" style="rhombus;whiteSpace=wrap;html=1;" vertex="1" parent="1">
          <mxGeometry x="930" y="140" width="100" height="50" as="geometry" />
        </mxCell>
        <mxCell id="iwsK-LVghK-gB1DlUTeF-140" value="" style="endArrow=none;html=1;rounded=0;entryX=1;entryY=0.5;entryDx=0;entryDy=0;exitX=0;exitY=0.25;exitDx=0;exitDy=0;" edge="1" parent="1" source="iwsK-LVghK-gB1DlUTeF-6" target="iwsK-LVghK-gB1DlUTeF-139">
          <mxGeometry width="50" height="50" relative="1" as="geometry">
            <mxPoint x="1065" y="190" as="sourcePoint" />
            <mxPoint x="1030" y="230" as="targetPoint" />
            <Array as="points">
              <mxPoint x="1030" y="140" />
            </Array>
          </mxGeometry>
        </mxCell>
        <mxCell id="iwsK-LVghK-gB1DlUTeF-141" value="" style="endArrow=none;html=1;rounded=0;entryX=0.75;entryY=1;entryDx=0;entryDy=0;exitX=0;exitY=0.5;exitDx=0;exitDy=0;jumpStyle=gap;" edge="1" parent="1" source="iwsK-LVghK-gB1DlUTeF-143" target="iwsK-LVghK-gB1DlUTeF-1">
          <mxGeometry width="50" height="50" relative="1" as="geometry">
            <mxPoint x="1020" y="210" as="sourcePoint" />
            <mxPoint x="290" y="195" as="targetPoint" />
            <Array as="points">
              <mxPoint x="248" y="200" />
            </Array>
          </mxGeometry>
        </mxCell>
        <mxCell id="iwsK-LVghK-gB1DlUTeF-143" value="has" style="rhombus;whiteSpace=wrap;html=1;" vertex="1" parent="1">
          <mxGeometry x="1010" y="180" width="100" height="50" as="geometry" />
        </mxCell>
        <mxCell id="iwsK-LVghK-gB1DlUTeF-144" value="" style="endArrow=none;html=1;rounded=0;entryX=0.25;entryY=1;entryDx=0;entryDy=0;exitX=1;exitY=0;exitDx=0;exitDy=0;" edge="1" parent="1" source="iwsK-LVghK-gB1DlUTeF-143" target="iwsK-LVghK-gB1DlUTeF-6">
          <mxGeometry width="50" height="50" relative="1" as="geometry">
            <mxPoint x="1180" y="220" as="sourcePoint" />
            <mxPoint x="1145" y="180" as="targetPoint" />
          </mxGeometry>
        </mxCell>
        <mxCell id="iwsK-LVghK-gB1DlUTeF-145" value="" style="endArrow=none;html=1;rounded=0;entryX=1;entryY=0.5;entryDx=0;entryDy=0;jumpStyle=gap;" edge="1" parent="1" target="iwsK-LVghK-gB1DlUTeF-3">
          <mxGeometry width="50" height="50" relative="1" as="geometry">
            <mxPoint x="1020" y="430" as="sourcePoint" />
            <mxPoint x="567" y="510" as="targetPoint" />
            <Array as="points">
              <mxPoint x="560" y="430" />
              <mxPoint x="560" y="400" />
              <mxPoint x="390" y="400" />
              <mxPoint x="390" y="370" />
            </Array>
          </mxGeometry>
        </mxCell>
        <mxCell id="iwsK-LVghK-gB1DlUTeF-146" value="has" style="rhombus;whiteSpace=wrap;html=1;" vertex="1" parent="1">
          <mxGeometry x="1010" y="400" width="100" height="50" as="geometry" />
        </mxCell>
        <mxCell id="iwsK-LVghK-gB1DlUTeF-147" value="" style="endArrow=none;html=1;rounded=0;entryX=0.25;entryY=0;entryDx=0;entryDy=0;exitX=0.5;exitY=1;exitDx=0;exitDy=0;" edge="1" parent="1" source="iwsK-LVghK-gB1DlUTeF-146" target="iwsK-LVghK-gB1DlUTeF-9">
          <mxGeometry width="50" height="50" relative="1" as="geometry">
            <mxPoint x="1099.76" y="450" as="sourcePoint" />
            <mxPoint x="1099.76" y="490" as="targetPoint" />
          </mxGeometry>
        </mxCell>
        <mxCell id="iwsK-LVghK-gB1DlUTeF-148" value="1" style="text;html=1;align=center;verticalAlign=middle;resizable=0;points=[];autosize=1;strokeColor=none;fillColor=none;" vertex="1" parent="1">
          <mxGeometry x="185" y="155" width="30" height="30" as="geometry" />
        </mxCell>
        <mxCell id="iwsK-LVghK-gB1DlUTeF-150" value="N" style="text;html=1;align=center;verticalAlign=middle;resizable=0;points=[];autosize=1;strokeColor=none;fillColor=none;" vertex="1" parent="1">
          <mxGeometry x="630" y="150" width="30" height="30" as="geometry" />
        </mxCell>
        <mxCell id="iwsK-LVghK-gB1DlUTeF-153" value="1" style="text;html=1;align=center;verticalAlign=middle;resizable=0;points=[];autosize=1;strokeColor=none;fillColor=none;" vertex="1" parent="1">
          <mxGeometry x="250" y="480" width="30" height="30" as="geometry" />
        </mxCell>
        <mxCell id="iwsK-LVghK-gB1DlUTeF-154" value="N" style="text;html=1;align=center;verticalAlign=middle;resizable=0;points=[];autosize=1;strokeColor=none;fillColor=none;" vertex="1" parent="1">
          <mxGeometry x="500" y="390" width="30" height="30" as="geometry" />
        </mxCell>
        <mxCell id="iwsK-LVghK-gB1DlUTeF-156" value="1" style="text;html=1;align=center;verticalAlign=middle;resizable=0;points=[];autosize=1;strokeColor=none;fillColor=none;" vertex="1" parent="1">
          <mxGeometry x="200" y="480" width="30" height="30" as="geometry" />
        </mxCell>
        <mxCell id="iwsK-LVghK-gB1DlUTeF-157" value="1" style="text;html=1;align=center;verticalAlign=middle;resizable=0;points=[];autosize=1;strokeColor=none;fillColor=none;" vertex="1" parent="1">
          <mxGeometry x="1050" y="115" width="30" height="30" as="geometry" />
        </mxCell>
        <mxCell id="iwsK-LVghK-gB1DlUTeF-158" value="1" style="text;html=1;align=center;verticalAlign=middle;resizable=0;points=[];autosize=1;strokeColor=none;fillColor=none;" vertex="1" parent="1">
          <mxGeometry x="1070" y="160" width="30" height="30" as="geometry" />
        </mxCell>
        <mxCell id="iwsK-LVghK-gB1DlUTeF-159" value="1" style="text;html=1;align=center;verticalAlign=middle;resizable=0;points=[];autosize=1;strokeColor=none;fillColor=none;" vertex="1" parent="1">
          <mxGeometry x="245" y="155" width="30" height="30" as="geometry" />
        </mxCell>
        <mxCell id="iwsK-LVghK-gB1DlUTeF-160" value="N" style="text;html=1;align=center;verticalAlign=middle;resizable=0;points=[];autosize=1;strokeColor=none;fillColor=none;" vertex="1" parent="1">
          <mxGeometry x="690" y="150" width="30" height="30" as="geometry" />
        </mxCell>
        <mxCell id="iwsK-LVghK-gB1DlUTeF-161" value="1" style="text;html=1;align=center;verticalAlign=middle;resizable=0;points=[];autosize=1;strokeColor=none;fillColor=none;" vertex="1" parent="1">
          <mxGeometry x="650" y="440" width="30" height="30" as="geometry" />
        </mxCell>
        <mxCell id="iwsK-LVghK-gB1DlUTeF-165" value="1" style="text;html=1;align=center;verticalAlign=middle;resizable=0;points=[];autosize=1;strokeColor=none;fillColor=none;" vertex="1" parent="1">
          <mxGeometry x="270" y="340" width="30" height="30" as="geometry" />
        </mxCell>
        <mxCell id="iwsK-LVghK-gB1DlUTeF-166" value="N" style="text;html=1;align=center;verticalAlign=middle;resizable=0;points=[];autosize=1;strokeColor=none;fillColor=none;" vertex="1" parent="1">
          <mxGeometry x="1070" y="480" width="30" height="30" as="geometry" />
        </mxCell>
        <mxCell id="iwsK-LVghK-gB1DlUTeF-167" value="1" style="text;html=1;align=center;verticalAlign=middle;resizable=0;points=[];autosize=1;strokeColor=none;fillColor=none;" vertex="1" parent="1">
          <mxGeometry x="580" y="365" width="30" height="30" as="geometry" />
        </mxCell>
        <mxCell id="iwsK-LVghK-gB1DlUTeF-168" value="N" style="text;html=1;align=center;verticalAlign=middle;resizable=0;points=[];autosize=1;strokeColor=none;fillColor=none;" vertex="1" parent="1">
          <mxGeometry x="630" y="420" width="30" height="30" as="geometry" />
        </mxCell>
        <mxCell id="iwsK-LVghK-gB1DlUTeF-169" value="1" style="text;html=1;align=center;verticalAlign=middle;resizable=0;points=[];autosize=1;strokeColor=none;fillColor=none;" vertex="1" parent="1">
          <mxGeometry x="190" y="320" width="30" height="30" as="geometry" />
        </mxCell>
        <mxCell id="iwsK-LVghK-gB1DlUTeF-171" value="N" style="text;html=1;align=center;verticalAlign=middle;resizable=0;points=[];autosize=1;strokeColor=none;fillColor=none;" vertex="1" parent="1">
          <mxGeometry x="1155" y="380" width="30" height="30" as="geometry" />
        </mxCell>
      </root>
    </mxGraphModel>
  </diagram>
</mxfile>
